<svg xmlns="http://www.w3.org/2000/svg" height="24" width="24" fill="#a8a8a8"><path d="M12 7.625q3.225 0 5.913 1.063Q20.6 9.75 22.95 12.1q.525.5.525 1.375t-.525 1.4L20.675 17.1q-.375.375-1.05.4-.675.025-1.2-.375L15.85 15.2q-.3-.225-.462-.563-.163-.337-.163-.712V10.85q-.825-.25-1.588-.362-.762-.113-1.637-.113t-1.637.113q-.763.112-1.588.362v3.075q0 .375-.162.712-.163.338-.463.563l-2.575 1.925q-.45.35-1.163.35-.712 0-1.087-.375L1.05 14.875q-.5-.525-.512-1.4-.013-.875.512-1.375Q3.4 9.825 6.088 8.725q2.687-1.1 5.912-1.1Z"/></svg>